<?xml version="1.0" standalone="yes"?>
<svg xmlns="http://www.w3.org/2000/svg" width="1024" height="1024">
<path style="fill:#010101; stroke:none;" d="M0 0L0 1024L1024 1024L1024 0L0 0z"/>
<path style="fill:#70a4da; stroke:none;" d="M434 282L435 283L434 282M436 282L437 283L436 282z"/>
<path style="fill:#c166f6; stroke:none;" d="M376 399C376.358 416.272 386.774 432.442 400.286 442.6C405.19 446.286 411.494 447.931 416 452C421.101 451.838 425.944 453.341 431 453.83C439.821 454.684 449.415 454.401 457.985 452.101C472.241 448.275 484.503 440.284 492.891 427.961C503.625 412.19 502.651 386.897 491.1 372.015C480.2 357.971 460.418 352.784 444 348.626C434.284 346.165 409.042 341.302 413.869 326.004C417.75 313.704 436.585 312.193 447 314.924C453.685 316.677 459.348 320.281 463.351 326C465.186 328.621 465.822 333.101 468.509 334.969C472.546 337.776 482.244 335.171 486.999 335.377C491.823 335.587 498.737 337.297 502 333C498.793 333 499.996 327.807 499.333 325C497.493 317.205 494.312 309.559 489.667 303C481.09 290.892 463.108 284.372 449 283C431.98 281.345 411.942 283.683 398 294.333C375.97 311.162 374.43 346.971 398 363.667C408.64 371.203 421.534 375.204 434 378.667C443.145 381.207 455.308 382.822 462 390.333C470.779 400.188 466.96 413.425 456 419.667C447.056 424.76 436.727 425.127 427 422.167C420.441 420.17 414.266 414.03 411.167 408C409.906 405.546 409.753 401.246 407.667 399.333C405.88 397.696 403.103 398.979 401 398.833C392.638 398.253 384.396 399 376 399z"/>
<path style="fill:#70a4da; stroke:none;" d="M438 282L439 283L438 282M426 283L427 284L426 283M451 283L452 284L451 283M411 287C412.248 287.685 412.548 287.749 414 288C412.752 287.315 412.452 287.251 411 287M464 287C465.248 287.685 465.548 287.749 467 288C465.752 287.315 465.452 287.251 464 287M469 288L470 289L469 288z"/>
<path style="fill:#c166f6; stroke:none;" d="M523 288L523 403L523 433C523 436.121 521.954 441.779 524.028 444.397C525.745 446.565 529.58 445.995 532 446C538.828 446.014 546.423 446.944 553 445C551.377 434.805 552.915 423.631 552.62 413.286C551.974 390.546 552.015 367.756 552 345C553.336 347.5 553.886 349.175 554 352C555.195 351.402 554.978 351.534 556 350C559.892 355.272 564.864 361.48 566 368C569.686 369.143 571.571 372.961 573.657 376.089C578.103 382.758 583.134 388.965 587 396L585 395C590.772 399.873 594.401 405.711 598.649 412C601.029 415.524 603.899 417.583 604 422C612.445 427.142 614.546 438.914 622.518 443.972C624.902 445.485 628.314 444.999 631 445C637.034 445.003 643.098 444.595 649 446C651.431 437.776 649.079 429.335 649.079 421C649.079 405.337 649.516 389.694 649.129 374C649.03 369.996 650.025 366.036 649.988 362.004C649.843 346.01 649 330.036 649 314C649 305.453 649.904 296.474 649 288C640.298 290.072 629.758 289.626 621 288L621 392C609.235 377.798 599.56 361.339 589.333 346C585.877 340.815 578.995 334.494 581 328C579.584 328.472 579.186 328.814 578 330C573.107 319.702 565.274 310.513 559.003 301C556.573 297.313 554.258 291.351 549.907 289.603C546.971 288.424 543.098 289 540 289C534.224 289 528.724 288.723 523 288z"/>
<path style="fill:#70a4da; stroke:none;" d="M526 288C532.687 290.806 542.767 289 550 289C543.313 286.194 533.233 288 526 288M623 288C629.928 290.907 640.503 289 648 289C641.072 286.093 630.497 288 623 288M406 289L407 290L406 289M404 290L405 291L404 290M649 290L650 291L649 290M521 292L522 293L521 292M649 293L650 294L649 293M394 297L395 298L394 297M483 297L484 298L483 297M386 307L387 308L386 307z"/>
<path style="fill:#c166f6; stroke:none;" d="M567 309L568 310L567 309z"/>
<path style="fill:#70a4da; stroke:none;" d="M494 311L495 312L494 311M649 311L650 312L649 311M383 314L382 319C383.318 317.074 383.651 316.234 383 314z"/>
<path style="fill:#c166f6; stroke:none;" d="M431 315L432 316L431 315z"/>
<path style="fill:#70a4da; stroke:none;" d="M449 315L450 316L449 315z"/>
<path style="fill:#c166f6; stroke:none;" d="M521.333 316.667C521.278 316.722 521.222 317.778 521.667 317.333C521.722 317.278 521.778 316.222 521.333 316.667M451 317L452 318L451 317M619 317L620 318L619 317M574 319L575 320L574 319z"/>
<path style="fill:#70a4da; stroke:none;" d="M416 320L417 321L416 320M498 321L499 322L498 321z"/>
<path style="fill:#c166f6; stroke:none;" d="M521.333 323.667C521.278 323.722 521.222 324.778 521.667 324.333C521.722 324.278 521.778 323.222 521.333 323.667M501 324L502 325L501 324M582 328L583 329L582 328M464 329L465 330L464 329M501 329L501 332C501.696 330.446 501.696 330.554 501 329M521 332L522 333L521 332z"/>
<path style="fill:#70a4da; stroke:none;" d="M579 332L580 333L579 332z"/>
<path style="fill:#c166f6; stroke:none;" d="M464 335L465 336L464 335z"/>
<path style="fill:#70a4da; stroke:none;" d="M476 335L477 336L476 335M485 335L486 336L485 335M493 335L494 336L493 335M495 335L496 336L495 335z"/>
<path style="fill:#c166f6; stroke:none;" d="M502 335L503 336L502 335z"/>
<path style="fill:#70a4da; stroke:none;" d="M649 336L650 337L649 336M381 338L382 339L381 338z"/>
<path style="fill:#c166f6; stroke:none;" d="M423 340L424 341L423 340z"/>
<path style="fill:#70a4da; stroke:none;" d="M649 341L649 344C649.696 342.446 649.696 342.554 649 341z"/>
<path style="fill:#c166f6; stroke:none;" d="M521 342L522 343L521 342z"/>
<path style="fill:#70a4da; stroke:none;" d="M424.667 343.333C424.222 343.778 425.278 343.722 425.333 343.667C425.778 343.222 424.722 343.278 424.667 343.333z"/>
<path style="fill:#c166f6; stroke:none;" d="M441 344L442 345L441 344z"/>
<path style="fill:#70a4da; stroke:none;" d="M384 347L385 348L384 347M385 348L386 349L385 348z"/>
<path style="fill:#c166f6; stroke:none;" d="M521.333 348.667C521.278 348.722 521.222 349.778 521.667 349.333C521.722 349.278 521.778 348.222 521.333 348.667M455 349L456 350L455 349z"/>
<path style="fill:#70a4da; stroke:none;" d="M387.333 351.667C387.278 351.722 387.222 352.778 387.667 352.333C387.722 352.278 387.778 351.222 387.333 351.667z"/>
<path style="fill:#c166f6; stroke:none;" d="M521 351L522 352L521 351z"/>
<path style="fill:#70a4da; stroke:none;" d="M557 351C557.684 352.58 557.805 352.777 559 354C558.316 352.42 558.195 352.223 557 351z"/>
<path style="fill:#c166f6; stroke:none;" d="M465 352L466 353L465 352z"/>
<path style="fill:#70a4da; stroke:none;" d="M649 354L650 355L649 354M390 356L391 357L390 356M649 356L650 357L649 356M469.667 357.333C469.222 357.778 470.278 357.722 470.333 357.667C470.778 357.222 469.722 357.278 469.667 357.333M392 358L393 359L392 358M562.333 358.667C562.278 358.722 562.222 359.778 562.667 359.333C562.722 359.278 562.778 358.222 562.333 358.667M473.667 359.333C473.222 359.778 474.278 359.722 474.333 359.667C474.778 359.222 473.722 359.278 473.667 359.333z"/>
<path style="fill:#c166f6; stroke:none;" d="M481 360L482 361L481 360M561 360L562 361L561 360M560.333 362.667C560.278 362.722 560.222 363.778 560.667 363.333C560.722 363.278 560.778 362.222 560.333 362.667M521 363L522 364L521 363M562 365C563.067 365.599 563.742 365.753 565 366C563.559 364.92 563.832 365.031 562 365z"/>
<path style="fill:#7174e1; stroke:none;" d="M401 365L402 366L401 365z"/>
<path style="fill:#c166f6; stroke:none;" d="M560 365L561 366L560 365M521 366L522 367L521 366z"/>
<path style="fill:#70a4da; stroke:none;" d="M408 369L409 370L408 369M649 369L649 378C650.256 375.006 650.256 371.994 649 369z"/>
<path style="fill:#c166f6; stroke:none;" d="M328 372C307.985 402.349 296.606 440.135 292.9 476C291.576 488.813 289.623 501.955 291.184 515C292.815 528.626 295.418 542.709 298.902 555.985C300.582 562.388 304.519 568.34 305 575C310.981 581.354 313.721 592.904 317.992 600.704C326.668 616.549 337.384 631.887 349.49 645.282C354.791 651.147 360.987 658.262 368 662C363.839 653.978 353.419 649.196 352 640L359 640C360.825 632.15 365.043 631.949 372 629C371.429 627.487 371.136 626.573 371 625C360.904 617.833 352.521 606.395 346 596C353.356 595.44 359.887 603.622 366.001 606.949C378.516 613.76 394.685 620.831 409 622C405.504 619.435 401.329 617.477 397 617C398.479 616.014 398.203 616 400 616L400 608L401 607C404.997 607.344 407.407 605.364 411.17 604.78C414.589 604.249 418.519 604.998 422 605C418.556 603.453 415.017 603.47 412 601C404.228 602.215 396.557 598.222 389.715 595.067C382.273 591.636 375.792 589.169 368.91 584.329C361.956 579.439 354.318 574.869 348.286 568.816C332.434 552.906 320.873 530.455 318.184 508C316.488 493.829 318.961 480.116 319 466L322 467C320.36 463.053 320.486 460.177 321 456C323.975 464.714 327.455 472.687 331.398 481C333.336 485.084 336.042 488.331 336 493C337.915 494.277 337.085 494.277 339 493C339.566 494.773 339.928 496.158 340 498C342.754 498 344.996 501.85 346.667 504.167C350.903 510.04 355.494 515.576 360.333 521C362.74 523.697 365 524.158 365 528C369.441 529.2 374.65 533.544 376 538C381.022 539.139 389.342 545.044 391 550C395.175 550.586 400.542 552.773 402 557L405 556L404 560C404.685 558.752 404.749 558.452 405 557C415.95 562.061 426.526 566.842 438 570.667C442.007 572.002 447.742 574.836 452 574.528C456.005 574.238 457.102 569.879 453 569L458 566L456 560L460 561C458.911 557.763 457.221 550.071 454.541 548.046C448.996 543.854 437.128 544.661 435 537C428.37 539.21 421.717 532.773 417 529L418 528C411.581 527.099 406.775 522.793 401.83 518.934C391.913 511.193 382.724 502.64 374.59 493C370.792 488.499 366.093 483.921 365 478C359.821 476.373 356.782 467.979 353.913 463.576C351.395 459.712 350.169 455.161 348.22 451C341.972 437.66 332.521 418.032 335 403C333.7 403.65 334 403.147 334 405C333.66 402.982 333.677 402.032 334 400C329.11 393.644 329.431 379.814 330 372L328 372M569 372L570 373L569 372z"/>
<path style="fill:#70a4da; stroke:none;" d="M572 373L573 374L572 373z"/>
<path style="fill:#c166f6; stroke:none;" d="M697 373L697 375L699 375C698.455 373.365 698.635 373.545 697 373z"/>
<path style="fill:#70a4da; stroke:none;" d="M329 374L330 375L329 374M608 375L609 376L608 375z"/>
<path style="fill:#7174e1; stroke:none;" d="M697 375C697 399.295 691.051 424.037 681.788 446.424C653.065 515.841 596.278 571.85 524 595.255C505.974 601.092 486.006 606.128 467 606.961C457.242 607.388 446.722 607.771 437 606.83C428.695 606.026 420.479 604.362 412.09 604.418C408.156 604.445 405.088 607.152 401 607L400 608C399.962 611.304 399.778 614.058 397 616C399.742 618.742 405.358 619.086 409 622L408 623C420.753 624.62 433.111 628.028 446 628.911C477.565 631.072 510.108 625.171 540 615.329C553.298 610.952 566.736 605.241 579 598.486C585.835 594.722 594.199 586.825 602 586C608.563 577.939 619.057 572.339 627 565.573C642.073 552.732 655.996 538.674 668.112 523C678.279 509.847 686.359 495.883 693.752 481C697.302 473.854 699.377 463.629 705 458C705.819 464.346 707.472 470.597 707.911 477C709.595 501.567 705.695 526.788 694.892 549C691.438 556.102 687.367 562.69 682.625 569C679.383 573.313 675.279 577.106 673 582C681.534 575.938 687.653 566.018 692.716 557C702.918 538.828 706.484 520.375 709.125 500.039C710.332 490.748 711.921 481.52 712 472L720 472C720.899 469.877 720.876 469.899 723 469L721 464L725 464L726 460C732.027 477.803 730 498.487 730 517C732.701 510.564 731 500.951 731 494C731 475.118 728.768 456.228 723.573 438C721.675 431.343 719.926 424.524 717.609 418C715.803 412.917 713.192 408.499 713 403C706.165 395.431 705.215 381.023 697 375z"/>
<path style="fill:#c166f6; stroke:none;" d="M699.333 376.667C699.278 376.722 699.222 377.778 699.667 377.333C699.722 377.278 699.778 376.222 699.333 376.667M700.333 378.667C700.278 378.722 700.222 379.778 700.667 379.333C700.722 379.278 700.778 378.222 700.333 378.667z"/>
<path style="fill:#70a4da; stroke:none;" d="M437 379L438 380L437 379z"/>
<path style="fill:#c166f6; stroke:none;" d="M521.333 379.667C521.278 379.722 521.222 380.778 521.667 380.333C521.722 380.278 521.778 379.222 521.333 379.667z"/>
<path style="fill:#70a4da; stroke:none;" d="M696 379L696 389C697.346 385.793 697.346 382.207 696 379M441 380L442 381L441 380z"/>
<path style="fill:#c166f6; stroke:none;" d="M701.333 380.667C701.278 380.722 701.222 381.778 701.667 381.333C701.722 381.278 701.778 380.222 701.333 380.667M619 381L620 382L619 381z"/>
<path style="fill:#70a4da; stroke:none;" d="M448 382L449 383L448 382z"/>
<path style="fill:#c166f6; stroke:none;" d="M702.333 382.667C702.278 382.722 702.222 383.778 702.667 383.333C702.722 383.278 702.778 382.222 702.333 382.667z"/>
<path style="fill:#70a4da; stroke:none;" d="M703.333 384.667C703.278 384.722 703.222 385.778 703.667 385.333C703.722 385.278 703.778 384.222 703.333 384.667M455 385L456 386L455 385z"/>
<path style="fill:#c166f6; stroke:none;" d="M576 385L577 386L576 385M619 385L620 386L619 385M704.333 386.667C704.278 386.722 704.222 387.778 704.667 387.333C704.722 387.278 704.778 386.222 704.333 386.667z"/>
<path style="fill:#70a4da; stroke:none;" d="M552 387L553 388L552 387M582.333 387.667C582.278 387.722 582.222 388.778 582.667 388.333C582.722 388.278 582.778 387.222 582.333 387.667M460 388L461 389L460 388z"/>
<path style="fill:#c166f6; stroke:none;" d="M501 388L502 389L501 388M619 388L620 389L619 388z"/>
<path style="fill:#70a4da; stroke:none;" d="M705.333 388.667C705.278 388.722 705.222 389.778 705.667 389.333C705.722 389.278 705.778 388.222 705.333 388.667M318 389L319 390L318 389M618 389L619 390L618 389z"/>
<path style="fill:#c166f6; stroke:none;" d="M696.333 389.667C696.278 389.722 696.222 390.778 696.667 390.333C696.722 390.278 696.778 389.222 696.333 389.667z"/>
<path style="fill:#70a4da; stroke:none;" d="M462 390L463 391L462 390M706.333 390.667C706.278 390.722 706.222 391.778 706.667 391.333C706.722 391.278 706.778 390.222 706.333 390.667M695 392L695 397C695.83 394.97 695.83 394.03 695 392M707.333 392.667C707.278 392.722 707.222 393.778 707.667 393.333C707.722 393.278 707.778 392.222 707.333 392.667M464 393L465 394L464 393M693 393L694 394L693 393M708.333 394.667C708.278 394.722 708.222 395.778 708.667 395.333C708.722 395.278 708.778 394.222 708.333 394.667z"/>
<path style="fill:#c166f6; stroke:none;" d="M333 396L334 397L333 396z"/>
<path style="fill:#70a4da; stroke:none;" d="M709.333 396.667C709.278 396.722 709.222 397.778 709.667 397.333C709.722 397.278 709.778 396.222 709.333 396.667M552 397L553 398L552 397M589.333 397.667C589.278 397.722 589.222 398.778 589.667 398.333C589.722 398.278 589.778 397.222 589.333 397.667M380 398L381 399L380 398M385.667 398.333C385.222 398.778 386.278 398.722 386.333 398.667C386.778 398.222 385.722 398.278 385.667 398.333M389 398L390 399L389 398M391 398C393.332 398.985 395.457 398.981 398 399C395.668 398.015 393.543 398.019 391 398M399 398C401.052 398.874 402.747 398.953 405 399C402.948 398.126 401.253 398.047 399 398M694 398L694 404C694.951 401.715 694.951 400.285 694 398M710 399L711 400L710 399z"/>
<path style="fill:#c166f6; stroke:none;" d="M521 401L521 406C521.83 403.97 521.83 403.03 521 401z"/>
<path style="fill:#70a4da; stroke:none;" d="M552 401L553 402L552 401z"/>
<path style="fill:#c166f6; stroke:none;" d="M711.333 401.667C711.278 401.722 711.222 402.778 711.667 402.333C711.722 402.278 711.778 401.222 711.333 401.667z"/>
<path style="fill:#70a4da; stroke:none;" d="M594.333 404.667C594.278 404.722 594.222 405.778 594.667 405.333C594.722 405.278 594.778 404.222 594.333 404.667M693 404L693 407C693.696 405.446 693.696 405.554 693 404z"/>
<path style="fill:#c166f6; stroke:none;" d="M712.333 404.667C712.278 404.722 712.222 405.778 712.667 405.333C712.722 405.278 712.778 404.222 712.333 404.667M593 406L594 407L593 406z"/>
<path style="fill:#70a4da; stroke:none;" d="M713.333 406.667C713.278 406.722 713.222 407.778 713.667 407.333C713.722 407.278 713.778 406.222 713.333 406.667z"/>
<path style="fill:#7174e1; stroke:none;" d="M466 407L467 408L466 407z"/>
<path style="fill:#c166f6; stroke:none;" d="M521 407L521 410C521.696 408.446 521.696 408.554 521 407z"/>
<path style="fill:#70a4da; stroke:none;" d="M596.333 407.667C596.278 407.722 596.222 408.778 596.667 408.333C596.722 408.278 596.778 407.222 596.333 407.667z"/>
<path style="fill:#c166f6; stroke:none;" d="M593 408L594 409L593 408z"/>
<path style="fill:#7174e1; stroke:none;" d="M647 408L647 443L624 443C630.687 445.806 640.767 444 648 444L648 421C648 416.74 648.661 411.959 647 408z"/>
<path style="fill:#70a4da; stroke:none;" d="M692 408L692 413C692.83 410.97 692.83 410.03 692 408M714 408L714 411C714.696 409.446 714.696 409.554 714 408M552 409L553 410L552 409z"/>
<path style="fill:#c166f6; stroke:none;" d="M521.333 411.667C521.278 411.722 521.222 412.778 521.667 412.333C521.722 412.278 521.778 411.222 521.333 411.667M715 411L715 414C715.696 412.446 715.696 412.554 715 411z"/>
<path style="fill:#70a4da; stroke:none;" d="M552 412L553 413L552 412z"/>
<path style="fill:#7174e1; stroke:none;" d="M463 413L464 414L463 413z"/>
<path style="fill:#70a4da; stroke:none;" d="M691 413L691 416C691.696 414.446 691.696 414.554 691 413M716 413L716 416C716.696 414.446 716.696 414.554 716 413M415 414L416 415L415 414M601 415L602 416L601 415M417 416L418 417L417 416z"/>
<path style="fill:#c166f6; stroke:none;" d="M521 416L522 417L521 416z"/>
<path style="fill:#70a4da; stroke:none;" d="M649 416L649 426C650.346 422.793 650.346 419.207 649 416z"/>
<path style="fill:#c166f6; stroke:none;" d="M717 416L718 417L717 416M377 417L378 418L377 417z"/>
<path style="fill:#70a4da; stroke:none;" d="M418 417L419 418L418 417M552 417L552 420C552.696 418.446 552.696 418.554 552 417M603 417C603.684 418.58 603.805 418.777 605 420C604.316 418.42 604.195 418.223 603 417M690 417L690 420C690.696 418.446 690.696 418.554 690 417M496.333 418.667C496.278 418.722 496.222 419.778 496.667 419.333C496.722 419.278 496.778 418.222 496.333 418.667M688 418L689 419L688 418z"/>
<path style="fill:#c166f6; stroke:none;" d="M521 419L522 420L521 419M602 419L603 420L602 419M718 419L719 420L718 419z"/>
<path style="fill:#70a4da; stroke:none;" d="M718.333 420.667C718.278 420.722 718.222 421.778 718.667 421.333C718.722 421.278 718.778 420.222 718.333 420.667M424.667 421.333C424.222 421.778 425.278 421.722 425.333 421.667C425.778 421.222 424.722 421.278 424.667 421.333z"/>
<path style="fill:#c166f6; stroke:none;" d="M521 421L522 422L521 421z"/>
<path style="fill:#70a4da; stroke:none;" d="M552 421L552 424C552.696 422.446 552.696 422.554 552 421z"/>
<path style="fill:#7174e1; stroke:none;" d="M603 421L604 422L603 421z"/>
<path style="fill:#70a4da; stroke:none;" d="M337 422L337 425C337.696 423.446 337.696 423.554 337 422M428 422L429 423L428 422z"/>
<path style="fill:#c166f6; stroke:none;" d="M602 422L603 423L602 422z"/>
<path style="fill:#70a4da; stroke:none;" d="M689 422L689 425C689.696 423.446 689.696 423.554 689 422M719.333 422.667C719.278 422.722 719.222 423.778 719.667 423.333C719.722 423.278 719.778 422.222 719.333 422.667M433 423L434 424L433 423M445.667 423.333C445.222 423.778 446.278 423.722 446.333 423.667C446.778 423.222 445.722 423.278 445.667 423.333M608.333 424.667C608.278 424.722 608.222 425.778 608.667 425.333C608.722 425.278 608.778 424.222 608.333 424.667M552 425L553 426L552 425M688 425L688 428C688.696 426.446 688.696 426.554 688 425M720 425L720 428C720.696 426.446 720.696 426.554 720 425M303 426L304 427L303 426z"/>
<path style="fill:#c166f6; stroke:none;" d="M384 427L385 428L384 427z"/>
<path style="fill:#70a4da; stroke:none;" d="M609 427C609.545 428.635 609.365 428.455 611 429L611 427L609 427M492 428L493 429L492 428M687 428L687 432C687.71 430.241 687.71 429.759 687 428M721 428L722 435C722.965 432.294 722.466 430.45 721 428z"/>
<path style="fill:#c166f6; stroke:none;" d="M385 429L386 430L385 429M609 429L610 430L609 429z"/>
<path style="fill:#70a4da; stroke:none;" d="M611 429L612 430L611 429M612.333 430.667C612.278 430.722 612.222 431.778 612.667 431.333C612.722 431.278 612.778 430.222 612.333 430.667M685 430L686 431L685 430z"/>
<path style="fill:#c166f6; stroke:none;" d="M342 431L343 432L342 431z"/>
<path style="fill:#70a4da; stroke:none;" d="M552.333 431.667C552.278 431.722 552.222 432.778 552.667 432.333C552.722 432.278 552.778 431.222 552.333 431.667M301 432L302 433L301 432M488 432C487.043 433.517 486.613 434.338 486 436C487.63 434.485 488.163 434.145 488 432M613 432L614 433L613 432M686 432L686 435C686.696 433.446 686.696 433.554 686 432M391 433C391.936 434.949 392.392 435.55 394 437C393.064 435.051 392.608 434.45 391 433M614 433C614.684 434.58 614.805 434.777 616 436C615.316 434.42 615.195 434.223 614 433M685 435L685 438C685.696 436.446 685.696 436.554 685 435M723 435L723 438C723.696 436.446 723.696 436.554 723 435M616 436L617 437L616 436M484 437L485 438L484 437z"/>
<path style="fill:#c166f6; stroke:none;" d="M521 437L522 438L521 437z"/>
<path style="fill:#70a4da; stroke:none;" d="M617.333 437.667C617.278 437.722 617.222 438.778 617.667 438.333C617.722 438.278 617.778 437.222 617.333 437.667M684 438L684 441C684.696 439.446 684.696 439.554 684 438M618 439L619 440L618 439M724 439L724 442C724.696 440.446 724.696 440.554 724 439M398 440L399 441L398 440M619.333 440.667C619.278 440.722 619.222 441.778 619.667 441.333C619.722 441.278 619.778 440.222 619.333 440.667M681 440L682 441L681 440M683 441L683 444C683.696 442.446 683.696 442.554 683 441M620 442L621 443L620 442M725 442L725 446C725.71 444.24 725.71 443.76 725 442M552 443L553 444L552 443M621.333 443.667C621.278 443.722 621.222 444.778 621.667 444.333C621.722 444.278 621.778 443.222 621.333 443.667M682.333 444.667C682.278 444.722 682.222 445.778 682.667 445.333C682.722 445.278 682.778 444.222 682.333 444.667M345 445L346 446L345 445z"/>
<path style="fill:#c166f6; stroke:none;" d="M616 445L617 446L616 445z"/>
<path style="fill:#70a4da; stroke:none;" d="M623 445C629.928 447.907 640.503 446 648 446C641.072 443.093 630.497 445 623 445M655 445L656 446L655 445z"/>
<path style="fill:#c166f6; stroke:none;" d="M404 446L404 448L406 448C405.455 446.365 405.635 446.545 404 446z"/>
<path style="fill:#70a4da; stroke:none;" d="M652 446L653 447L652 446M532 447L533 448L532 447z"/>
<path style="fill:#c166f6; stroke:none;" d="M533 447L534 448L533 447M545 447L546 448L545 447z"/>
<path style="fill:#70a4da; stroke:none;" d="M546 447L547 448L546 447z"/>
<path style="fill:#c166f6; stroke:none;" d="M547 447L548 448L547 447z"/>
<path style="fill:#70a4da; stroke:none;" d="M642 447L643 448L642 447M644.667 447.333C644.222 447.778 645.278 447.722 645.333 447.667C645.778 447.222 644.722 447.278 644.667 447.333z"/>
<path style="fill:#c166f6; stroke:none;" d="M680 447L681 448L680 447z"/>
<path style="fill:#70a4da; stroke:none;" d="M726 447L726 451C726.71 449.241 726.71 448.76 726 447M466.667 448.333C466.222 448.778 467.278 448.722 467.333 448.667C467.778 448.222 466.722 448.278 466.667 448.333M463 449C464.248 449.685 464.548 449.749 466 450C464.752 449.315 464.452 449.251 463 449M680 449L679 454C680.318 452.074 680.651 451.234 680 449z"/>
<path style="fill:#c166f6; stroke:none;" d="M349 450L350 451L349 450M410 450L411 451L410 450z"/>
<path style="fill:#70a4da; stroke:none;" d="M727 451L727 456C727.83 453.97 727.83 453.03 727 451z"/>
<path style="fill:#c166f6; stroke:none;" d="M457 453L458 454L457 453M423 454L424 455L423 454z"/>
<path style="fill:#70a4da; stroke:none;" d="M678 454L677 459C678.318 457.074 678.651 456.234 678 454M295 455L296 456L295 455z"/>
<path style="fill:#c166f6; stroke:none;" d="M420.667 455.333C420.222 455.778 421.278 455.722 421.333 455.667C421.778 455.222 420.722 455.278 420.667 455.333z"/>
<path style="fill:#70a4da; stroke:none;" d="M321.333 456.667C321.278 456.722 321.222 457.778 321.667 457.333C321.722 457.278 321.778 456.222 321.333 456.667M728 456L728 461C728.83 458.97 728.83 458.03 728 456M672 457L673 458L672 457M674 457L675 458L674 457M703 458C698.117 471.077 691.092 483.079 686 496C695.002 487.093 698.932 471.38 704 460C707.72 474.379 707 489.275 707 504C708.769 499.785 708 494.536 708 490C708 479 707.096 468.806 705 458L703 458M320 459L320 462C320.696 460.446 320.696 460.554 320 459M676.333 459.667C676.278 459.722 676.222 460.778 676.667 460.333C676.722 460.278 676.778 459.222 676.333 459.667M352 460L353 464C353.393 462.076 353.146 461.64 352 460z"/>
<path style="fill:#010101; stroke:none;" d="M703 460C700.215 472.477 692.74 484.991 686.412 496C665.141 533.003 634.053 563.049 599 586.986C584.666 596.774 568.902 604.348 553 611.157C548.258 613.188 537.514 614.824 536 620C532.148 617.743 526.643 619.48 524 623C518.636 621.841 513.29 623.902 508 624.997C499.72 626.711 491.414 628.016 483 628.83C455.623 631.48 428.501 629.135 402 621.573C388.798 617.805 375.706 612.364 364 605.189C358.83 602.021 352.375 594.719 346 596C349.35 603.663 355.272 609.768 360.718 615.999C381.581 639.87 412.879 654.784 444 659.271C521.797 670.486 604.852 642.056 663.089 589.675C691.129 564.456 707 529.7 707 492C707 482.86 708.919 467.522 703 460z"/>
<path style="fill:#70a4da; stroke:none;" d="M726 460L725 464L721 464C721.465 465.894 722.066 467.277 723 469C720.636 469.482 720.482 469.636 720 472L712 472C711.177 511.867 701.982 552.777 673 582L673 580C667.469 583.896 663.026 589.133 657.83 593.475C648.351 601.395 638.384 608.623 628 615.308C581.837 645.027 523.573 665.716 468 661.911C453.212 660.898 438.161 659.033 424 654.495C414.661 651.503 405.438 646.158 396 644C401.017 648.156 407.934 650.418 414 652.681C426.979 657.521 442.078 661.711 456 662C453.271 662.81 450.85 662.979 448 663C448 667.57 449.224 673.262 445 676C447.311 677.393 449.309 677.765 452 678C448.206 679.043 444.873 678.305 441 678C448.066 681.757 458.158 681.411 466 682.17C490.713 684.561 515.715 682.932 540 677.789C549.419 675.795 559.369 670.915 569 671C574.963 665.214 585.479 663.144 593 659.691C607.928 652.838 622.261 644.642 636 635.656C642.591 631.345 648.701 626.441 655 621.731C658.554 619.073 661.639 615.984 666 615C667.417 610.212 673.479 606.511 677 603C674.741 608.235 670.68 617.094 665 619C664.207 625.344 656.4 631.672 651.999 635.985C640.891 646.874 628.309 656.37 615 664.399C609.683 667.607 604.356 671.682 598 672C597.466 676.107 589.579 677.881 586 679.389C576.592 683.353 566.916 686.859 557 689.361C552.574 690.478 548.542 691.992 544 691C541.67 694.883 533.533 692.867 529 694C514.681 697.58 496.92 694.16 483 693C477.357 692.53 469.734 691.84 465 689L466 688C461.552 689.483 454.156 686.494 450 684L451 683C445.86 683.307 441.833 680.392 437 679L439 678C436.948 677.126 435.253 677.047 433 677L438 681C435.73 681.275 435.721 682.181 434 683C436.226 685.459 436.296 686.608 434 689L435 693L431 694C434.454 701.462 441.677 703.557 449 706C456.492 708.5 464.078 711.353 472 712C470.199 712.562 468.878 712.824 467 713C472.53 715.945 479.846 716.391 486 717.271C503.313 719.745 521.609 720.028 539 718.166C610.44 710.518 675.179 663.971 707.247 600C715.507 583.523 725.473 564.697 727 546C724.115 550.786 723.133 557.526 722 563C721.008 556.324 724.311 548.535 725.87 542C727.666 534.465 728.032 526.661 729 519C729.99 522.35 729.998 525.514 730 529C732.273 523.585 731.998 515.865 732 510L732 478C730.339 481.959 731 486.74 731 491L731 517C725.706 499.089 734.443 477.57 726 460M294.333 461.667C294.278 461.722 294.222 462.778 294.667 462.333C294.722 462.278 294.778 461.222 294.333 461.667M675.333 461.667C675.278 461.722 675.222 462.778 675.667 462.333C675.722 462.278 675.778 461.222 675.333 461.667M729 462L729 469C730.059 466.466 730.06 464.534 729 462M674.333 463.667C674.278 463.722 674.222 464.778 674.667 464.333C674.722 464.278 674.778 463.222 674.333 463.667z"/>
<path style="fill:#c166f6; stroke:none;" d="M356 464L357 465L356 464z"/>
<path style="fill:#70a4da; stroke:none;" d="M673.333 465.667C673.278 465.722 673.222 466.778 673.667 466.333C673.722 466.278 673.778 465.222 673.333 465.667M293 467L293 470C293.696 468.446 293.696 468.554 293 467M672.333 467.667C672.278 467.722 672.222 468.778 672.667 468.333C672.722 468.278 672.778 467.222 672.333 467.667M671.333 469.667C671.278 469.722 671.222 470.778 671.667 470.333C671.722 470.278 671.778 469.222 671.333 469.667M704 470L705 471L704 470M730 470L730 476C730.951 473.715 730.951 472.285 730 470M670.333 471.667C670.278 471.722 670.222 472.778 670.667 472.333C670.722 472.278 670.778 471.222 670.333 471.667z"/>
<path style="fill:#7174e1; stroke:none;" d="M292 473L293 474L292 473z"/>
<path style="fill:#70a4da; stroke:none;" d="M328.333 473.667C328.278 473.722 328.222 474.778 328.667 474.333C328.722 474.278 328.778 473.222 328.333 473.667M669.333 473.667C669.278 473.722 669.222 474.778 669.667 474.333C669.722 474.278 669.778 473.222 669.333 473.667M292 474L292 480C292.951 477.715 292.951 476.285 292 474M329.333 475.667C329.278 475.722 329.222 476.778 329.667 476.333C329.722 476.278 329.778 475.222 329.333 475.667M668 475L669 476L668 475M667.333 476.667C667.278 476.722 667.222 477.778 667.667 477.333C667.722 477.278 667.778 476.222 667.333 476.667M666.333 478.667C666.278 478.722 666.222 479.778 666.667 479.333C666.722 479.278 666.778 478.222 666.333 478.667M665 480L666 481L665 480M664.333 481.667C664.278 481.722 664.222 482.778 664.667 482.333C664.722 482.278 664.778 481.222 664.333 481.667z"/>
<path style="fill:#c166f6; stroke:none;" d="M330 483L331 484L330 483z"/>
<path style="fill:#70a4da; stroke:none;" d="M663.333 483.667C663.278 483.722 663.222 484.778 663.667 484.333C663.722 484.278 663.778 483.222 663.333 483.667M662 485C661.014 486.479 661 486.203 661 488C662.289 486.557 662.401 486.766 662 485M317 486L318 487L317 486z"/>
<path style="fill:#c166f6; stroke:none;" d="M332 487L333 488L332 487z"/>
<path style="fill:#70a4da; stroke:none;" d="M317 488L318 489L317 488M660 488L661 489L660 488z"/>
<path style="fill:#010101; stroke:none;" d="M337.333 491.667C337.278 491.722 337.222 492.778 337.667 492.333C337.722 492.278 337.778 491.222 337.333 491.667z"/>
<path style="fill:#70a4da; stroke:none;" d="M658 491C657.014 492.479 657 492.203 657 494C658.289 492.557 658.401 492.766 658 491z"/>
<path style="fill:#c166f6; stroke:none;" d="M336 495L337 496L336 495M338 495L339 496L338 495z"/>
<path style="fill:#70a4da; stroke:none;" d="M655.333 495.667C655.278 495.722 655.222 496.778 655.667 496.333C655.722 496.278 655.778 495.222 655.333 495.667z"/>
<path style="fill:#c166f6; stroke:none;" d="M382 497L383 498L382 497z"/>
<path style="fill:#70a4da; stroke:none;" d="M654 497C653.014 498.479 653 498.203 653 500C654.289 498.557 654.401 498.766 654 497M685 497L686 498L685 497M651 498L652 499L651 498M684.333 498.667C684.278 498.722 684.222 499.778 684.667 499.333C684.722 499.278 684.778 498.222 684.333 498.667M705 499L706 500L705 499M652 500L653 501L652 500M683 500C682.014 501.479 682 501.203 682 503C683.289 501.557 683.401 501.766 683 500z"/>
<path style="fill:#7174e1; stroke:none;" d="M705 500L706 501L705 500z"/>
<path style="fill:#70a4da; stroke:none;" d="M648 502L649 503L648 502M346 503L347 504L346 503M650 503L651 504L650 503M681 503C680.014 504.479 680 504.203 680 506C681.289 504.557 681.401 504.766 681 503M649 504C648.043 505.517 647.613 506.338 647 508C648.63 506.485 649.163 506.145 649 504M706 505L705 518C706.883 514.081 707.705 509.072 706 505M318 506L318 511C318.83 508.969 318.83 508.03 318 506z"/>
<path style="fill:#7174e1; stroke:none;" d="M645 506L646 507L645 506z"/>
<path style="fill:#70a4da; stroke:none;" d="M387 507L388 508L387 507M679 507L680 508L679 507M388 508L389 509L388 508M646 508L647 509L646 508M645 509C644.014 510.478 644 510.203 644 512C645.289 510.557 645.401 510.766 645 509M677 510L678 511L677 510z"/>
<path style="fill:#c166f6; stroke:none;" d="M344 511L345 512L344 511M350 511L351 512L350 511z"/>
<path style="fill:#70a4da; stroke:none;" d="M676 511L677 512L676 511M643 512L644 513L643 512M675.333 512.667C675.277 512.722 675.222 513.778 675.667 513.333C675.722 513.278 675.778 512.222 675.333 512.667M642 513L643 514L642 513M355 514L356 515L355 514M641 514C639.651 515.768 638.878 516.982 638 519C640.015 517.356 641.098 516.587 641 514M674 514L675 515L674 514M673.333 515.667C673.278 515.722 673.222 516.778 673.667 516.333C673.722 516.278 673.778 515.222 673.333 515.667M397.667 516.333C397.222 516.778 398.278 516.722 398.333 516.667C398.778 516.222 397.722 516.278 397.667 516.333M291 517L292 518L291 517M672 517L673 518L672 517z"/>
<path style="fill:#c166f6; stroke:none;" d="M352 518L353 519L352 518z"/>
<path style="fill:#70a4da; stroke:none;" d="M358 518L359 519L358 518M671 518L672 519L671 518M704 518L704 522C704.71 520.24 704.71 519.76 704 518M637 519L638 520L637 519M670.333 519.667C670.278 519.722 670.222 520.778 670.667 520.333C670.722 520.278 670.778 519.222 670.333 519.667z"/>
<path style="fill:#7174e1; stroke:none;" d="M729 519C727.77 525.624 727.72 532.388 726.335 539C724.667 546.963 721.708 554.886 721 563C724.663 557.865 723.848 550.769 728 546C726.264 537.099 732.629 527.647 729 519z"/>
<path style="fill:#70a4da; stroke:none;" d="M292 520L292 527C293.059 524.466 293.059 522.534 292 520M636 520L637 521L636 520M404 521L405 522L404 521M635 521L636 522L635 521M669 521L670 522L669 521M321 522L322 523L321 522M634 522L635 523L634 522M668 522L669 523L668 522M703 522L703 525C703.696 523.446 703.696 523.554 703 522M363 523L364 524L363 523M406.667 523.333C406.222 523.778 407.278 523.722 407.333 523.667C407.778 523.222 406.722 523.278 406.667 523.333M633 523L634 524L633 523M667.333 523.667C667.278 523.722 667.222 524.778 667.667 524.333C667.722 524.278 667.778 523.222 667.333 523.667M364 524L365 525L364 524M632 524C628.732 527.268 625.503 531.651 621 533L620 534C619.27 536.731 617.603 538.654 616 541C621.229 538.562 632.13 530.164 632 524z"/>
<path style="fill:#c166f6; stroke:none;" d="M360 525L361 526L360 525z"/>
<path style="fill:#70a4da; stroke:none;" d="M365 525L366 526L365 525M666 525L667 526L666 525M628 526L629 527L628 526M665 526L666 527L665 526M702 526L702 530C702.71 528.24 702.71 527.76 702 526M664 527L665 528L664 527M293 528L293 534C293.951 531.715 293.951 530.285 293 528M663 528L664 529L663 528M620 529L621 530L620 529M662 529C661.014 530.479 661 530.203 661 532C662.289 530.557 662.401 530.766 662 529M697 529L698 530L697 529M700 529L699 531C700.263 530.029 700.392 530.306 700 529M701 530L701 533C701.696 531.446 701.696 531.554 701 530M729 530L727 545C729.208 540.853 730.815 534.449 729 530M583.667 531.333C583.222 531.778 584.278 531.722 584.333 531.667C584.778 531.222 583.722 531.278 583.667 531.333M623 531L624 532L623 531M420.667 532.333C420.222 532.778 421.278 532.722 421.333 532.667C421.778 532.222 420.722 532.278 420.667 532.333M561 544C568.105 545.471 577.842 538.164 584 535C582.242 537.012 581.084 538.581 580 541C583.528 538.493 586.003 535.848 588 532C578.54 534.725 570.34 540.82 561 544M660 532L661 533L660 532M662 532L663 533L662 532M422.667 533.333C422.222 533.778 423.278 533.722 423.333 533.667C423.778 533.222 422.722 533.278 422.667 533.333M659 533L660 534L659 533M700 533L699 539C700.495 536.815 700.889 535.508 700 533M424.667 534.333C424.222 534.778 425.278 534.722 425.333 534.667C425.778 534.222 424.722 534.278 424.667 534.333z"/>
<path style="fill:#c166f6; stroke:none;" d="M428 534L429 535L428 534z"/>
<path style="fill:#010101; stroke:none;" d="M621 534L622 535L621 534z"/>
<path style="fill:#70a4da; stroke:none;" d="M658 534L659 535L658 534M426 535C427.543 536.267 428.048 536.489 430 537C428.542 535.919 427.752 535.564 426 535z"/>
<path style="fill:#7174e1; stroke:none;" d="M456 549C456.586 553.666 457.937 556.79 460 561L456 560C456.386 562.143 456.745 563.25 458 565C456.319 566.306 454.952 567.182 453 568C454.248 568.685 454.548 568.749 456 569C455.349 571.434 454.84 572.283 453 574C457.48 576.386 462.961 575.822 467 579C478.118 576.83 490.591 579.916 502 578.83C533.524 575.83 566.416 562.776 584 535C577.458 537.345 571.516 541.094 565 543.576C546.907 550.465 527.469 555.516 508 555.985C496.027 556.274 483.737 554.515 472 552.384C466.596 551.403 461.498 549.449 456 549z"/>
<path style="fill:#70a4da; stroke:none;" d="M589 535L590 536L589 535M294.333 536.667C294.278 536.722 294.222 537.778 294.667 537.333C294.722 537.278 294.778 536.222 294.333 536.667M575 536L576 537L575 536M656 537L657 538L656 537M295 538L295 543C295.83 540.969 295.83 540.031 295 538M655 538L656 539L655 538M327 539L328 540L327 539M434.667 539.333C434.222 539.778 435.278 539.722 435.333 539.667C435.778 539.222 434.722 539.278 434.667 539.333M439 539L440 540L439 539M608 539L609 540L608 539M654 539L655 540L654 539M698 539L698 542C698.696 540.446 698.696 540.554 698 539M436 540C437.458 541.081 438.248 541.436 440 542C438.542 540.919 437.752 540.564 436 540z"/>
<path style="fill:#7174e1; stroke:none;" d="M438 540L439 541L438 540z"/>
<path style="fill:#70a4da; stroke:none;" d="M653 540L654 541L653 540M615 541L616 542L615 541M652 541L653 542L652 541M440 542C441.248 542.685 441.548 542.749 443 543C441.752 542.315 441.452 542.251 440 542z"/>
<path style="fill:#c166f6; stroke:none;" d="M446 542L447 543L446 542z"/>
<path style="fill:#70a4da; stroke:none;" d="M614 542L615 543L614 542M651 542L652 543L651 542M697.333 542.667C697.278 542.722 697.222 543.778 697.667 543.333C697.722 543.278 697.778 542.222 697.333 542.667M443 543C444.75 544.255 445.857 544.614 448 545C446.249 543.745 445.143 543.386 443 543M609 547C611.357 545.896 612.376 545.044 614 543C611.643 544.104 610.624 544.956 609 547M650 543L651 544L650 543M576 544L577 545L576 544M649 544L650 545L649 544M696.333 544.667C696.278 544.722 696.222 545.778 696.667 545.333C696.722 545.278 696.778 544.222 696.333 544.667M448 545C449.248 545.685 449.548 545.749 451 546C449.752 545.315 449.452 545.251 448 545M558.667 545.333C558.222 545.778 559.278 545.722 559.333 545.667C559.778 545.222 558.722 545.278 558.667 545.333M575 545L576 546L575 545M648 545L649 546L648 545M690 545L691 546L690 545M451 546C452.248 546.685 452.548 546.749 454 547C452.752 546.315 452.452 546.251 451 546M555 546C556.248 546.685 556.548 546.749 558 547C556.752 546.315 556.452 546.251 555 546M574 546L575 547L574 546M647 546C644.794 548.252 642.807 550.424 641 553C644.158 551.511 647.08 549.717 647 546M695.333 546.667C695.278 546.722 695.222 547.778 695.667 547.333C695.722 547.278 695.778 546.222 695.333 546.667M454 547C456.042 548.416 457.511 548.745 460 549C457.987 547.775 456.342 547.355 454 547M552 547C553.248 547.685 553.548 547.749 555 548C553.752 547.315 553.452 547.251 552 547M608 547L609 548L608 547M297 548L297 551C297.696 549.446 297.696 549.554 297 548M548 548C549.506 548.683 550.315 548.826 552 549C550.494 548.317 549.685 548.174 548 548M607 548L608 549L607 548M694 548L693 552C694.303 550.332 694.553 550.008 694 548M460 549C461.506 549.683 462.315 549.826 464 550C462.494 549.317 461.685 549.174 460 549M544 549C545.506 549.683 546.315 549.826 548 550C546.494 549.317 545.685 549.174 544 549M603 552C604.949 551.064 605.55 550.608 607 549C605.052 549.936 604.45 550.392 603 552M464 550C466.889 551.731 469.661 551.929 473 552C470.138 550.624 467.162 550.251 464 550M541 550C542.248 550.685 542.548 550.749 544 551C542.752 550.315 542.452 550.251 541 550M536 551C537.769 551.779 539.036 551.912 541 552C539.231 551.221 537.964 551.088 536 551z"/>
<path style="fill:#c166f6; stroke:none;" d="M472.667 552.333C472.222 552.778 473.278 552.722 473.333 552.667C473.778 552.222 472.722 552.278 472.667 552.333z"/>
<path style="fill:#70a4da; stroke:none;" d="M474 552C476.052 552.874 477.747 552.953 480 553C477.948 552.126 476.253 552.047 474 552z"/>
<path style="fill:#7174e1; stroke:none;" d="M520 552L521 553L520 552z"/>
<path style="fill:#70a4da; stroke:none;" d="M521 552L522 553L521 552M532 552C533.506 552.683 534.315 552.826 536 553C534.494 552.317 533.685 552.174 532 552M566 554C567.58 553.317 567.777 553.195 569 552C567.42 552.684 567.223 552.805 566 554M602 552L603 553L602 552M692.333 552.667C692.278 552.722 692.222 553.778 692.667 553.333C692.722 553.278 692.778 552.222 692.333 552.667M480 553C484.343 555.602 489.127 554.756 494 555.089C504.197 555.788 513.828 555.007 524 555C518.336 552.623 511.92 554.907 506 554.981C497.341 555.091 488.659 553.179 480 553M525 553C526.769 553.779 528.036 553.912 530 554C528.231 553.221 526.964 553.088 525 553M596 553L597 554L596 553M598 556C599.949 555.064 600.55 554.608 602 553C600.052 553.936 599.45 554.392 598 556M640 553L641 554L640 553M565 554L566 555L565 554z"/>
<path style="fill:#7174e1; stroke:none;" d="M592 554L593 555L592 554z"/>
<path style="fill:#70a4da; stroke:none;" d="M639 554L640 555L639 554M691.333 554.667C691.277 554.723 691.222 555.778 691.667 555.333C691.722 555.278 691.778 554.222 691.333 554.667M564 555L565 556L564 555M638 555L639 556L638 555M563 556L564 557L563 556M597 556L598 557L597 556M637 556L638 557L637 556M690.333 556.667C690.278 556.722 690.222 557.778 690.667 557.333C690.722 557.278 690.778 556.222 690.333 556.667M560 559C561.58 558.317 561.777 558.195 563 557C561.42 557.684 561.223 557.805 560 559M593 560C594.949 559.064 595.55 558.608 597 557C595.052 557.936 594.45 558.392 593 560M636 557L637 558L636 557z"/>
<path style="fill:#7174e1; stroke:none;" d="M592 558L593 559L592 558z"/>
<path style="fill:#70a4da; stroke:none;" d="M635 558L636 559L635 558M689 558C688.014 559.479 688 559.203 688 561C689.289 559.557 689.401 559.766 689 558M410.667 559.333C410.222 559.778 411.278 559.722 411.333 559.667C411.778 559.222 410.722 559.278 410.667 559.333M559 559L560 560L559 559M632 561C633.58 560.317 633.777 560.195 635 559C633.42 559.684 633.223 559.805 632 561M412.667 560.333C412.222 560.778 413.278 560.722 413.333 560.667C413.778 560.222 412.722 560.278 412.667 560.333M556 562C557.58 561.317 557.777 561.195 559 560C557.42 560.684 557.223 560.805 556 562M591.667 560.333C591.222 560.778 592.278 560.722 592.333 560.667C592.778 560.222 591.722 560.278 591.667 560.333M301.333 561.667C301.278 561.722 301.222 562.778 301.667 562.333C301.722 562.278 301.778 561.222 301.333 561.667M414.667 561.333C414.222 561.778 415.278 561.722 415.333 561.667C415.778 561.222 414.722 561.278 414.667 561.333M590 561L591 562L590 561M631 561L632 562L631 561M687 561C686.014 562.479 686 562.203 686 564C687.289 562.557 687.401 562.766 687 561M342 562L343 563L342 562M553 564C554.58 563.317 554.777 563.195 556 562C554.42 562.684 554.223 562.805 553 564M559 562L560 563L559 562M587 564C588.58 563.317 588.777 563.195 590 562C588.42 562.684 588.223 562.805 587 564M630 562L631 563L630 562M418 563C419.458 564.081 420.248 564.436 422 565C420.457 563.733 419.952 563.511 418 563M629 563L630 564L629 563z"/>
<path style="fill:#7174e1; stroke:none;" d="M722 563L723 564L722 563z"/>
<path style="fill:#70a4da; stroke:none;" d="M551.667 564.333C551.222 564.778 552.278 564.722 552.333 564.667C552.778 564.222 551.722 564.278 551.667 564.333M584 566C585.58 565.317 585.777 565.195 587 564C585.42 564.684 585.223 564.805 584 566M628 564L629 565L628 564M685 564C684.043 565.517 683.613 566.338 683 568C684.63 566.485 685.163 566.145 685 564z"/>
<path style="fill:#7174e1; stroke:none;" d="M720 564C716.949 570.882 714.845 578.131 711.691 585C708.493 591.967 704.128 598.612 702 606C709.261 598.815 713.791 585.502 717.319 576C718.732 572.193 721.186 568.022 720 564z"/>
<path style="fill:#70a4da; stroke:none;" d="M550 565L551 566L550 565M555.667 565.333C555.222 565.778 556.278 565.722 556.333 565.667C556.778 565.222 555.722 565.278 555.667 565.333M627 565L628 566L627 565z"/>
<path style="fill:#7174e1; stroke:none;" d="M420 566C420.545 567.635 420.365 567.455 422 568C421.455 566.365 421.635 566.545 420 566z"/>
<path style="fill:#c166f6; stroke:none;" d="M421 566L422 567L421 566z"/>
<path style="fill:#70a4da; stroke:none;" d="M548 566L549 567L548 566M581 568C582.58 567.317 582.777 567.195 584 566C582.42 566.684 582.223 566.805 581 568M624 568C625.58 567.317 625.777 567.195 627 566C625.42 566.684 625.223 566.805 624 568M427 567C428.75 568.255 429.857 568.614 432 569C430.249 567.745 429.143 567.386 427 567M546.667 567.333C546.222 567.778 547.278 567.722 547.333 567.667C547.778 567.222 546.722 567.278 546.667 567.333M347 568L348 569L347 568M542 569C543.659 569.406 544.242 569.309 546 569C544.191 568.426 543.931 568.535 542 569z"/>
<path style="fill:#7174e1; stroke:none;" d="M572 568L573 569L572 568z"/>
<path style="fill:#70a4da; stroke:none;" d="M579.667 568.333C579.222 568.778 580.278 568.722 580.333 568.667C580.778 568.222 579.722 568.278 579.667 568.333M623 568L624 569L623 568M682 568C681.014 569.479 681 569.203 681 571C682.289 569.557 682.401 569.766 682 568M348 569L349 570L348 569M432 569C433.248 569.685 433.548 569.749 435 570C433.752 569.315 433.452 569.251 432 569M572 569L573 570L572 569M576 571C577.58 570.317 577.777 570.195 579 569C577.42 569.684 577.223 569.805 576 571M622 569L623 570L622 569M304.333 570.667C304.278 570.722 304.222 571.778 304.667 571.333C304.722 571.278 304.778 570.222 304.333 570.667M349 570L350 571L349 570M435 570C436.248 570.685 436.548 570.749 438 571C436.752 570.315 436.452 570.251 435 570M539 570C540.248 570.685 540.548 570.749 542 571C540.752 570.315 540.452 570.251 539 570M621 570L622 571L621 570M431 571L432 572L431 571z"/>
<path style="fill:#7174e1; stroke:none;" d="M432 571L433 572L432 571z"/>
<path style="fill:#70a4da; stroke:none;" d="M434 571L435 572L434 571M438 571C439.248 571.685 439.548 571.749 441 572C439.752 571.315 439.452 571.251 438 571M537.667 571.333C537.222 571.778 538.278 571.722 538.333 571.667C538.778 571.222 537.722 571.278 537.667 571.333M573 573C574.58 572.317 574.777 572.195 576 571C574.42 571.684 574.223 571.805 573 573M619.667 571.333C619.222 571.778 620.278 571.722 620.333 571.667C620.778 571.222 619.722 571.278 619.667 571.333M680 571L681 572L680 571M305.333 572.667C305.278 572.722 305.222 573.778 305.667 573.333C305.722 573.278 305.778 572.222 305.333 572.667M435 572L434 574C435.263 573.029 435.392 573.306 435 572M441 572C442.248 572.685 442.548 572.749 444 573C442.752 572.315 442.452 572.251 441 572M527 574C530.371 575.196 533.587 573.78 537 573C533.629 571.804 530.413 573.22 527 574M618 572L619 573L618 572M679 572C677.652 573.768 676.878 574.983 676 577C678.015 575.356 679.098 574.587 679 572z"/>
<path style="fill:#7174e1; stroke:none;" d="M435.333 573.667C435.278 573.722 435.222 574.778 435.667 574.333C435.722 574.278 435.778 573.222 435.333 573.667z"/>
<path style="fill:#70a4da; stroke:none;" d="M439 573L440 574L439 573M445 573C446.248 573.685 446.548 573.749 448 574C446.752 573.315 446.452 573.251 445 573z"/>
<path style="fill:#7174e1; stroke:none;" d="M538 573L539 574L538 573z"/>
<path style="fill:#70a4da; stroke:none;" d="M571.667 573.333C571.222 573.778 572.278 573.722 572.333 573.667C572.778 573.222 571.722 573.278 571.667 573.333M617 573L618 574L617 573M672 573L673 574L672 573z"/>
<path style="fill:#7174e1; stroke:none;" d="M443 574L444 575L443 574z"/>
<path style="fill:#c166f6; stroke:none;" d="M444 574L445 575L444 574z"/>
<path style="fill:#70a4da; stroke:none;" d="M448 574C449.248 574.685 449.548 574.749 451 575C449.752 574.315 449.452 574.251 448 574M540 574L541 575L540 574M569.667 574.333C569.222 574.778 570.278 574.722 570.333 574.667C570.778 574.222 569.722 574.278 569.667 574.333M614 576C615.58 575.317 615.777 575.195 617 574C615.42 574.684 615.223 574.805 614 576M306.333 575.667C306.278 575.722 306.222 576.778 306.667 576.333C306.722 576.278 306.778 575.222 306.333 575.667M452 575C453.248 575.685 453.548 575.749 455 576C453.752 575.315 453.452 575.251 452 575z"/>
<path style="fill:#c166f6; stroke:none;" d="M455 575C455.545 576.635 455.365 576.455 457 577L457 575L455 575z"/>
<path style="fill:#70a4da; stroke:none;" d="M518 576C521.001 577.172 523.841 576.398 527 576C523.999 574.828 521.159 575.602 518 576M532 575L533 576L532 575M567.667 575.333C567.222 575.778 568.278 575.722 568.333 575.667C568.778 575.222 567.722 575.278 567.667 575.333M457 576C458.248 576.685 458.548 576.749 460 577C458.752 576.315 458.452 576.251 457 576z"/>
<path style="fill:#c166f6; stroke:none;" d="M460.667 576.333C460.222 576.778 461.278 576.722 461.333 576.667C461.778 576.222 460.722 576.278 460.667 576.333z"/>
<path style="fill:#70a4da; stroke:none;" d="M553 576L554 577L553 576M565.667 576.333C565.222 576.778 566.278 576.722 566.333 576.667C566.778 576.222 565.722 576.278 565.667 576.333M613 576L614 577L613 576M307.333 577.667C307.278 577.722 307.222 578.778 307.667 578.333C307.722 578.278 307.778 577.222 307.333 577.667M462 577C463.769 577.779 465.036 577.912 467 578C465.231 577.221 463.964 577.088 462 577M514 577C515.506 577.683 516.315 577.826 518 578C516.494 577.317 515.685 577.174 514 577M560 579C562.14 579.41 562.962 578.969 565 578C562.86 577.59 562.038 578.031 560 579M612 577L613 578L612 577M675 577L676 578L675 577M468 578C469.769 578.779 471.036 578.912 473 579C471.231 578.221 469.964 578.088 468 578M475 579C478.699 580.552 483.017 580 487 580C495.751 580 504.3 579.374 513 579C508.479 577.104 503.736 578.753 499 578.961C491.028 579.31 482.979 579 475 579M610 578L611 579L610 578M674 578L675 579L674 578M465 579L466 580L465 579M609 579L610 580L609 579M673 579L674 580L673 579z"/>
<path style="fill:#7174e1; stroke:none;" d="M470 580L471 581L470 580z"/>
<path style="fill:#70a4da; stroke:none;" d="M558.667 580.333C558.222 580.778 559.278 580.722 559.333 580.667C559.778 580.222 558.722 580.278 558.667 580.333M607.667 580.333C607.222 580.778 608.278 580.722 608.333 580.667C608.778 580.222 607.722 580.278 607.667 580.333z"/>
<path style="fill:#7174e1; stroke:none;" d="M482 581L483 582L482 581z"/>
<path style="fill:#70a4da; stroke:none;" d="M488 581C489.248 581.685 489.548 581.749 491 582C489.752 581.315 489.452 581.251 488 581M504 581L505 582L504 581M556.667 581.333C556.222 581.778 557.278 581.722 557.333 581.667C557.778 581.222 556.722 581.278 556.667 581.333M606 581L607 582L606 581M554.667 582.333C554.222 582.778 555.278 582.722 555.333 582.667C555.778 582.222 554.722 582.278 554.667 582.333M605 582L606 583L605 582M462 583L463 584L462 583M517 583L518 584L517 583M603 583L604 584L603 583M612 583L613 584L612 583M310.333 584.667C310.278 584.722 310.222 585.778 310.667 585.333C310.722 585.278 310.778 584.222 310.333 584.667M540 584L541 585L540 584z"/>
<path style="fill:#7174e1; stroke:none;" d="M545 584L546 585L545 584z"/>
<path style="fill:#70a4da; stroke:none;" d="M549.667 584.333C549.222 584.778 550.278 584.722 550.333 584.667C550.778 584.222 549.722 584.278 549.667 584.333M602 584L603 585L602 584M547.667 585.333C547.222 585.778 548.278 585.722 548.333 585.667C548.778 585.222 547.722 585.278 547.667 585.333M600 585L601 586L600 585M311.333 586.667C311.278 586.722 311.222 587.778 311.667 587.333C311.722 587.278 311.778 586.222 311.333 586.667z"/>
<path style="fill:#7174e1; stroke:none;" d="M535 586L536 587L535 586z"/>
<path style="fill:#70a4da; stroke:none;" d="M545.667 586.333C545.222 586.778 546.278 586.722 546.333 586.667C546.778 586.222 545.722 586.278 545.667 586.333M597 588C598.58 587.317 598.777 587.195 600 586C598.42 586.684 598.223 586.805 597 588M372.667 587.333C372.222 587.778 373.278 587.722 373.333 587.667C373.778 587.222 372.722 587.278 372.667 587.333M535 587L536 588L535 587M538 587L539 588L538 587M540 588C541.943 588.622 542.949 588.436 545 588C543.057 587.378 542.051 587.564 540 588M594 590C595.58 589.317 595.777 589.195 597 588C595.42 588.684 595.223 588.805 594 590M605 588L606 589L605 588z"/>
<path style="fill:#7174e1; stroke:none;" d="M660 594C663.166 592.52 664.951 590.832 667 588C663.834 589.48 662.049 591.169 660 594z"/>
<path style="fill:#70a4da; stroke:none;" d="M377 589L377 591L379 591C378.455 589.365 378.635 589.545 377 589M532 589L533 590L532 589M538.667 589.333C538.222 589.778 539.278 589.722 539.333 589.667C539.778 589.222 538.722 589.278 538.667 589.333M312 590L313 591L312 590z"/>
<path style="fill:#010101; stroke:none;" d="M342 590C343.48 592.412 344.524 593.661 347 595C345.591 592.436 344.597 591.33 342 590z"/>
<path style="fill:#70a4da; stroke:none;" d="M535 590C536.248 590.685 536.548 590.749 538 591C536.752 590.315 536.452 590.251 535 590M592.667 590.333C592.222 590.778 593.278 590.722 593.333 590.667C593.778 590.222 592.722 590.278 592.667 590.333M379 591C381.248 592.799 383.163 593.493 386 594C383.752 592.201 381.837 591.507 379 591M532 591C533.248 591.685 533.548 591.749 535 592C533.752 591.315 533.452 591.251 532 591M589 593C590.58 592.317 590.777 592.195 592 591C590.42 591.684 590.223 591.805 589 593M606 591L607 592L606 591M313 592L314 593L313 592M530.667 592.333C530.222 592.778 531.278 592.722 531.333 592.667C531.778 592.222 530.722 592.278 530.667 592.333M527.667 593.333C527.222 593.778 528.278 593.722 528.333 593.667C528.778 593.222 527.722 593.278 527.667 593.333M587.667 593.333C587.222 593.778 588.278 593.722 588.333 593.667C588.778 593.222 587.722 593.278 587.667 593.333M520 595C522.46 595.888 524.415 595.467 527 595C524.54 594.112 522.585 594.533 520 595M582 596C584.14 596.41 584.963 595.968 587 595C584.86 594.59 584.038 595.031 582 596M315 595L316 599C316.553 596.992 316.303 596.668 315 595M391 596C393.799 598.083 396.542 598.696 400 599C397.181 597.228 394.286 596.485 391 596M517 596C518.248 596.685 518.549 596.749 520 597C518.752 596.315 518.452 596.251 517 596z"/>
<path style="fill:#7174e1; stroke:none;" d="M655 598C656.58 597.317 656.777 597.195 658 596C656.42 596.684 656.223 596.805 655 598z"/>
<path style="fill:#70a4da; stroke:none;" d="M510 598C512.46 598.888 514.415 598.467 517 598C514.54 597.112 512.585 597.533 510 598M580.667 597.333C580.222 597.778 581.278 597.722 581.333 597.667C581.778 597.222 580.722 597.278 580.667 597.333z"/>
<path style="fill:#c166f6; stroke:none;" d="M349 598L350 599L349 598z"/>
<path style="fill:#70a4da; stroke:none;" d="M579 598L580 599L579 598M401.667 599.333C401.222 599.778 402.278 599.722 402.333 599.667C402.778 599.222 401.722 599.278 401.667 599.333M506 599C507.506 599.683 508.315 599.826 510 600C508.494 599.317 507.685 599.174 506 599M577 599L578 600L577 599M356.667 600.333C356.222 600.778 357.278 600.722 357.333 600.667C357.778 600.222 356.722 600.278 356.667 600.333M403 600C404.506 600.683 405.315 600.826 407 601C405.494 600.317 404.685 600.174 403 600M502 600C503.506 600.683 504.315 600.826 506 601C504.494 600.317 503.685 600.174 502 600M574.667 600.333C574.222 600.778 575.278 600.722 575.333 600.667C575.778 600.222 574.722 600.278 574.667 600.333M647 600L648 601L647 600z"/>
<path style="fill:#7174e1; stroke:none;" d="M638 610C643.495 610.753 649.955 604.125 653 600C647.566 602.421 642.927 606.648 638 610M664 612C669.477 609.461 674.484 604.888 678 600C672.631 602.503 667.59 607.306 664 612z"/>
<path style="fill:#70a4da; stroke:none;" d="M358 601L359 602L358 601M407 601C408.506 601.683 409.315 601.826 411 602C409.494 601.317 408.685 601.174 407 601M496 601C497.506 601.683 498.315 601.826 500 602C498.494 601.317 497.685 601.174 496 601M569 603C571.14 603.41 571.962 602.968 574 602C571.86 601.59 571.038 602.031 569 603M640 601L641 602L640 601M319.333 602.667C319.278 602.722 319.222 603.778 319.667 603.333C319.722 603.278 319.778 602.222 319.333 602.667M412 602C413.506 602.683 414.315 602.826 416 603C414.494 602.317 413.685 602.174 412 602M486 603C489.333 604.386 492.514 603.647 496 603C492.808 601.855 489.381 602.855 486 603z"/>
<path style="fill:#7174e1; stroke:none;" d="M679 602C677.957 604.096 677.397 605.699 677 608C678.631 605.957 679.444 604.583 679 602z"/>
<path style="fill:#70a4da; stroke:none;" d="M416 603C418.052 603.874 419.747 603.953 422 604C419.948 603.126 418.253 603.047 416 603M430 603L431 604L430 603M438 603L439 604L438 603z"/>
<path style="fill:#010101; stroke:none;" d="M676 603C672.471 606.519 666.921 610.03 666 615C658.411 614.882 649.052 625.661 643 630.116C627.512 641.518 610.367 651.016 593 659.219C586.202 662.43 573.277 664.731 569 671C562.68 670.062 556.085 673.508 550 675.116C538.863 678.058 527.433 680.293 516 681.715C497.911 683.966 479.113 683.612 461 681.83C452.939 681.037 445.045 678.657 437 678C440.929 681.255 445.869 683.991 451 683C451.727 687.892 462.892 688.984 467 688L465 689C469.634 691.794 475.722 692.047 481 692.92C495.24 695.273 509.588 695.339 524 694.985C529.083 694.861 540.611 694.883 544 691C548.723 692.391 553.316 690.565 558 689.37C567.513 686.944 576.984 683.714 586 679.843C589.896 678.17 597.458 676.506 598 672C604.179 672.725 609.875 668.081 615 665C628.65 656.794 641.645 647.191 652.996 635.985C657.454 631.584 664.712 625.507 665 619C670.228 617.968 676.879 608.38 676 603z"/>
<path style="fill:#70a4da; stroke:none;" d="M422 604C424.052 604.874 425.747 604.953 428 605C425.948 604.126 424.253 604.047 422 604z"/>
<path style="fill:#7174e1; stroke:none;" d="M444 604L445 605L444 604z"/>
<path style="fill:#70a4da; stroke:none;" d="M447 604L448 605L447 604M465 604L466 605L465 604M440 606C444.215 607.769 449.464 607 454 607C464.826 607 475.254 605.461 486 605C480.648 602.775 472.677 605.045 467 605.714C458.167 606.757 448.889 606 440 606M566 604C567.248 604.685 567.549 604.749 569 605C567.752 604.315 567.452 604.251 566 604M321.333 605.667C321.278 605.722 321.222 606.778 321.667 606.333C321.722 606.278 321.778 605.222 321.333 605.667M428 605C431.163 606.327 434.586 606 438 606C434.837 604.673 431.414 605 428 605M562 606C563.809 606.574 564.069 606.465 566 606C564.341 605.594 563.758 605.691 562 606z"/>
<path style="fill:#7174e1; stroke:none;" d="M569 605L570 606L569 605z"/>
<path style="fill:#c166f6; stroke:none;" d="M434 606C436.052 606.874 437.747 606.953 440 607C437.948 606.126 436.253 606.047 434 606z"/>
<path style="fill:#70a4da; stroke:none;" d="M322.333 607.667C322.278 607.722 322.222 608.778 322.667 608.333C322.722 608.278 322.778 607.222 322.333 607.667M560.667 607.333C560.222 607.778 561.278 607.722 561.333 607.667C561.778 607.222 560.722 607.278 560.667 607.333M568 607L569 608L568 607M557 608C558.248 608.685 558.549 608.749 560 609C558.752 608.315 558.452 608.251 557 608M632 608L633 609L632 608M371.667 609.333C371.222 609.778 372.278 609.722 372.333 609.667C372.778 609.222 371.722 609.278 371.667 609.333M555.667 609.333C555.222 609.778 556.278 609.722 556.333 609.667C556.778 609.222 555.722 609.278 555.667 609.333z"/>
<path style="fill:#7174e1; stroke:none;" d="M675.333 609.667C675.278 609.722 675.222 610.778 675.667 610.333C675.722 610.278 675.778 609.222 675.333 609.667z"/>
<path style="fill:#70a4da; stroke:none;" d="M373.667 610.333C373.222 610.778 374.278 610.722 374.333 610.667C374.778 610.222 373.722 610.278 373.667 610.333M550 611C551.943 611.622 552.949 611.436 555 611C553.057 610.378 552.051 610.564 550 611M630 610L631 611L630 610M324 611C324.684 612.58 324.805 612.777 326 614C325.316 612.42 325.195 612.223 324 611M375.667 611.333C375.222 611.778 376.278 611.722 376.333 611.667C376.778 611.222 375.722 611.278 375.667 611.333M377 612C378.75 613.255 379.857 613.614 382 614C380.25 612.745 379.143 612.386 377 612M545 613C546.943 613.622 547.949 613.436 550 613C548.057 612.378 547.051 612.564 545 613M554 612L555 613L554 612z"/>
<path style="fill:#7174e1; stroke:none;" d="M699 613L700 614L699 613z"/>
<path style="fill:#70a4da; stroke:none;" d="M359 614L360 615L359 614M539 615C541.239 615.811 542.647 615.529 545 615C542.837 614.324 541.268 614.613 539 615M326 615C326.545 616.635 326.365 616.455 328 617L328 615L326 615M384 615C385.248 615.685 385.548 615.749 387 616C385.752 615.315 385.452 615.251 384 615z"/>
<path style="fill:#c166f6; stroke:none;" d="M364 616L365 617L364 616z"/>
<path style="fill:#70a4da; stroke:none;" d="M536 616C537.248 616.685 537.548 616.749 539 617C537.752 616.315 537.452 616.251 536 616M623 616L624 617L623 616M506 624C511.507 626.149 518.073 622.354 524 623C526.984 620.369 531.176 618.359 535 620C536.489 616.056 531.279 617.657 529 618.296C521.455 620.415 513.794 623.048 506 624M392 618C393.248 618.685 393.548 618.749 395 619C393.752 618.315 393.452 618.251 392 618M329 619L330 620L329 619M395 619C396.248 619.685 396.548 619.749 398 620C396.752 619.315 396.452 619.251 395 619M398 620C399.248 620.685 399.548 620.749 401 621C399.752 620.315 399.452 620.251 398 620z"/>
<path style="fill:#7174e1; stroke:none;" d="M653 620L654 621L653 620z"/>
<path style="fill:#70a4da; stroke:none;" d="M330 621C330.545 622.635 330.365 622.455 332 623L332 621L330 621M401 621C402.506 621.683 403.315 621.826 405 622C403.494 621.317 402.685 621.174 401 621z"/>
<path style="fill:#7174e1; stroke:none;" d="M528 621L529 622L528 621z"/>
<path style="fill:#70a4da; stroke:none;" d="M405 622C406.248 622.685 406.548 622.749 408 623C406.752 622.315 406.452 622.251 405 622M332 623L333 624L332 623M409 623C410.248 623.685 410.548 623.749 412 624C410.752 623.315 410.452 623.251 409 623M521 623L522 624L521 623M333.333 624.667C333.278 624.722 333.222 625.778 333.667 625.333C333.722 625.278 333.778 624.222 333.333 624.667M413 624C414.248 624.685 414.548 624.749 416 625C414.752 624.315 414.452 624.251 413 624z"/>
<path style="fill:#c166f6; stroke:none;" d="M416.667 624.333C416.222 624.778 417.278 624.722 417.333 624.667C417.778 624.222 416.722 624.278 416.667 624.333z"/>
<path style="fill:#70a4da; stroke:none;" d="M417 625C418.506 625.683 419.315 625.826 421 626C419.494 625.317 418.685 625.174 417 625M446 629C450.72 630.981 456.92 630 462 630C476.877 630 491.248 627.166 506 626C500.836 623.894 494.434 626.662 489 626.964C474.577 627.769 460.495 629 446 629z"/>
<path style="fill:#7174e1; stroke:none;" d="M604 625L605 626L604 625z"/>
<path style="fill:#70a4da; stroke:none;" d="M370 626C375.367 632.594 384.868 639.409 393 642C386.969 636.335 377.581 629.21 370 626M422 626C424.052 626.874 425.747 626.953 428 627C425.948 626.126 424.253 626.047 422 626M416 627L417 628L416 627z"/>
<path style="fill:#7174e1; stroke:none;" d="M418 627L419 628L418 627z"/>
<path style="fill:#70a4da; stroke:none;" d="M419 627L420 628L419 627M428 627C429.769 627.779 431.036 627.912 433 628C431.231 627.221 429.964 627.088 428 627M504 627L505 628L504 627M335 628C335.545 629.635 335.365 629.455 337 630L337 628L335 628z"/>
<path style="fill:#7174e1; stroke:none;" d="M421 628L422 629L421 628z"/>
<path style="fill:#70a4da; stroke:none;" d="M435 628C437.613 629.098 440.164 628.993 443 629C440.387 627.902 437.835 628.007 435 628z"/>
<path style="fill:#7174e1; stroke:none;" d="M359 640C356.591 639.728 354.419 639.799 352 640C352.601 647.967 359.838 652.422 364.826 658C378.053 672.788 395.612 682.568 412.715 692.332C419.202 696.035 427.679 697.668 433 703C438.289 703.253 445.015 705.487 449 709C456.898 708.754 464.074 712.831 472 713C458.672 705.862 440.266 707.892 431 694L435 693L434 689C437.145 687.604 437.822 684.819 434 684C435.647 682.287 435.631 681.306 438 681C436.283 679.16 435.434 678.651 433 678C439.088 676.462 445.723 678.948 452 679C449.717 677.778 447.572 677.348 445 677C446.478 676.014 446.203 676 448 676L448 663L456 663C450.195 660.393 443.212 660.255 437 658.996C427.72 657.115 418.722 654.407 410 650.716C401.573 647.15 393.637 643.056 386 637.996C382.057 635.384 377.663 630.782 373.015 629.622C365.716 627.8 359.887 633.634 359 640z"/>
<path style="fill:#70a4da; stroke:none;" d="M383 629L384 630L383 629M430 631L433 630C431.234 629.599 431.443 629.711 430 631z"/>
<path style="fill:#7174e1; stroke:none;" d="M433 629L434 630L433 629M489 629L490 630L489 629z"/>
<path style="fill:#70a4da; stroke:none;" d="M490 629L491 630L490 629M337 630L338 631L337 630M438 630L439 631L438 630M440 630L441 631L440 630z"/>
<path style="fill:#7174e1; stroke:none;" d="M636 632C638.509 632.566 639.22 631.848 641 630L636 632z"/>
<path style="fill:#70a4da; stroke:none;" d="M449 631L450 632L449 631z"/>
<path style="fill:#7174e1; stroke:none;" d="M452.667 631.333C452.222 631.778 453.278 631.722 453.333 631.667C453.778 631.222 452.722 631.278 452.667 631.333z"/>
<path style="fill:#70a4da; stroke:none;" d="M456 631L457 632L456 631M461 631L462 632L461 631M465 631L466 632L465 631M468.667 631.333C468.222 631.778 469.278 631.722 469.333 631.667C469.778 631.222 468.722 631.278 468.667 631.333M501 631L502 632L501 631z"/>
<path style="fill:#7174e1; stroke:none;" d="M685 631L682 636C684.015 634.356 685.098 633.587 685 631M633.667 634.333C633.222 634.778 634.278 634.722 634.333 634.667C634.778 634.222 633.722 634.278 633.667 634.333z"/>
<path style="fill:#70a4da; stroke:none;" d="M341 635L342 636L341 635M584 635L585 636L584 635M342 636L343 637L342 636z"/>
<path style="fill:#7174e1; stroke:none;" d="M584.667 640.333C584.222 640.778 585.278 640.722 585.333 640.667C585.778 640.222 584.722 640.278 584.667 640.333M679 641L680 642L679 641z"/>
<path style="fill:#c166f6; stroke:none;" d="M393 642C394.223 643.195 394.42 643.316 396 644C394.777 642.805 394.58 642.684 393 642z"/>
<path style="fill:#70a4da; stroke:none;" d="M349 644L350 645L349 644z"/>
<path style="fill:#7174e1; stroke:none;" d="M545 654C548.738 655.134 552.369 653.327 556 652.191C563.057 649.985 569.876 646.945 577 645C572.594 643.697 568.114 646.54 564 648.085C557.796 650.414 551.204 651.625 545 654M673 646L672 648C673.263 647.029 673.392 647.306 673 646z"/>
<path style="fill:#70a4da; stroke:none;" d="M420 648L421 649L420 648M633 648L634 649L633 648z"/>
<path style="fill:#7174e1; stroke:none;" d="M670 649L671 650L670 649M355 651L356 652L355 651z"/>
<path style="fill:#70a4da; stroke:none;" d="M418 651L419 652L418 651M356 652L357 653L356 652z"/>
<path style="fill:#7174e1; stroke:none;" d="M667 652L668 653L667 652z"/>
<path style="fill:#70a4da; stroke:none;" d="M360 655L361 656L360 655M361 656L362 657L361 656M362 657L363 658L362 657z"/>
<path style="fill:#7174e1; stroke:none;" d="M489 663C493.85 665.035 499.896 663.912 505 663.285C515.618 661.981 526.364 658.464 537 658C531.955 655.903 526.144 658.419 521 659.389C510.518 661.366 499.671 662.912 489 663z"/>
<path style="fill:#70a4da; stroke:none;" d="M363 658L364 659L363 658M364 659L365 660L364 659M616 659L617 660L616 659M476 660L477 661L476 660z"/>
<path style="fill:#7174e1; stroke:none;" d="M659 660L660 661L659 660z"/>
<path style="fill:#70a4da; stroke:none;" d="M367.667 662.333C367.222 662.778 368.278 662.722 368.333 662.667C368.778 662.222 367.722 662.278 367.667 662.333z"/>
<path style="fill:#7174e1; stroke:none;" d="M659 662L660 663L659 662z"/>
<path style="fill:#70a4da; stroke:none;" d="M369 663L370 664L369 663z"/>
<path style="fill:#7174e1; stroke:none;" d="M456 663C465.274 667.001 478.078 665 488 665L488 663L456 663z"/>
<path style="fill:#70a4da; stroke:none;" d="M612 664L613 665L612 664M372 666L373 667L372 666M374 667L375 668L374 667M375 668L376 669L375 668M376 669L377 670L376 669M378 670L379 671L378 670M379 671L380 672L379 671M380 672L381 673L380 672M382 673L383 674L382 673z"/>
<path style="fill:#7174e1; stroke:none;" d="M646 673L647 674L646 673z"/>
<path style="fill:#70a4da; stroke:none;" d="M383 674C384.223 675.195 384.42 675.316 386 676C384.777 674.805 384.58 674.684 383 674M386 676L387 677L386 676M387.667 677.333C387.222 677.778 388.278 677.722 388.333 677.667C388.778 677.222 387.722 677.278 387.667 677.333z"/>
<path style="fill:#7174e1; stroke:none;" d="M507 680C513.257 682.626 521.49 679.823 528 679C522.05 676.678 513.408 679.947 507 680z"/>
<path style="fill:#70a4da; stroke:none;" d="M390.667 679.333C390.222 679.778 391.278 679.722 391.333 679.667C391.778 679.222 390.722 679.278 390.667 679.333z"/>
<path style="fill:#7174e1; stroke:none;" d="M453 679C458.05 681.267 463.606 680.656 469 681.17C480.641 682.278 492.296 682 504 682C497.786 679.392 488.705 681.032 482 680.999C472.291 680.952 462.762 679 453 679z"/>
<path style="fill:#70a4da; stroke:none;" d="M549 679L550 680L549 679M392 680C393.223 681.195 393.42 681.316 395 682C393.777 680.805 393.58 680.684 392 680z"/>
<path style="fill:#7174e1; stroke:none;" d="M438 681C443.592 685.633 451.947 688.486 459 690C453.742 685.752 444.64 682.184 438 681z"/>
<path style="fill:#70a4da; stroke:none;" d="M395 682L396 683L395 682M396.667 683.333C396.222 683.778 397.278 683.722 397.333 683.667C397.778 683.222 396.722 683.278 396.667 683.333z"/>
<path style="fill:#7174e1; stroke:none;" d="M463 683L464 684L463 683M454 684L455 685L454 684z"/>
<path style="fill:#70a4da; stroke:none;" d="M473 684L474 685L473 684M475.667 684.333C475.222 684.778 476.278 684.722 476.333 684.667C476.778 684.222 475.722 684.278 475.667 684.333M482 684C483.248 684.685 483.548 684.749 485 685C483.752 684.315 483.452 684.251 482 684M505 684L506 685L505 684M487 685L488 686L487 685M401.667 686.333C401.222 686.778 402.278 686.722 402.333 686.667C402.778 686.222 401.722 686.278 401.667 686.333M403.667 687.333C403.222 687.778 404.278 687.722 404.333 687.667C404.778 687.222 403.722 687.278 403.667 687.333z"/>
<path style="fill:#7174e1; stroke:none;" d="M462 687L463 688L462 687z"/>
<path style="fill:#70a4da; stroke:none;" d="M405 688C406.223 689.195 406.42 689.316 408 690C406.777 688.805 406.58 688.684 405 688z"/>
<path style="fill:#7174e1; stroke:none;" d="M466 688L467 689L466 688z"/>
<path style="fill:#70a4da; stroke:none;" d="M408.667 690.333C408.222 690.778 409.278 690.722 409.333 690.667C409.778 690.222 408.722 690.278 408.667 690.333z"/>
<path style="fill:#7174e1; stroke:none;" d="M460 690C464.421 692.779 469.829 693.775 475 694C470.732 691.427 464.916 690.662 460 690z"/>
<path style="fill:#70a4da; stroke:none;" d="M546 690L547 691L546 690M410.667 691.333C410.222 691.778 411.278 691.722 411.333 691.667C411.778 691.222 410.722 691.278 410.667 691.333M412.667 692.333C412.222 692.778 413.278 692.722 413.333 692.667C413.778 692.222 412.722 692.278 412.667 692.333M524 693L525 694L524 693M416.667 694.333C416.222 694.778 417.278 694.722 417.333 694.667C417.778 694.222 416.722 694.278 416.667 694.333z"/>
<path style="fill:#7174e1; stroke:none;" d="M476 694C481.021 697.012 487.321 696.691 493 697.089C505.523 697.967 517.515 697.008 530 697C523.685 694.35 515.684 697.021 509 696.999C497.942 696.964 487.044 694.091 476 694z"/>
<path style="fill:#70a4da; stroke:none;" d="M418.667 695.333C418.222 695.778 419.278 695.722 419.333 695.667C419.778 695.222 418.722 695.278 418.667 695.333M420.667 696.333C420.222 696.778 421.278 696.722 421.333 696.667C421.778 696.222 420.722 696.278 420.667 696.333M422.667 697.333C422.222 697.778 423.278 697.722 423.333 697.667C423.778 697.222 422.722 697.278 422.667 697.333M424.667 698.333C424.222 698.778 425.278 698.722 425.333 698.667C425.778 698.222 424.722 698.278 424.667 698.333M426 699C427.248 699.685 427.548 699.749 429 700C427.752 699.315 427.452 699.251 426 699M429.667 700.333C429.222 700.778 430.278 700.722 430.333 700.667C430.778 700.222 429.722 700.278 429.667 700.333M431.667 701.333C431.222 701.778 432.278 701.722 432.333 701.667C432.778 701.222 431.722 701.278 431.667 701.333M434.667 702.333C434.222 702.778 435.278 702.722 435.333 702.667C435.778 702.222 434.722 702.278 434.667 702.333M436.667 703.333C436.222 703.778 437.278 703.722 437.333 703.667C437.778 703.222 436.722 703.278 436.667 703.333M438.667 704.333C438.222 704.778 439.278 704.722 439.333 704.667C439.778 704.222 438.722 704.278 438.667 704.333z"/>
<path style="fill:#7174e1; stroke:none;" d="M592 704L593 705L592 704z"/>
<path style="fill:#70a4da; stroke:none;" d="M441.667 705.333C441.222 705.778 442.278 705.722 442.333 705.667C442.778 705.222 441.722 705.278 441.667 705.333M444.667 706.333C444.222 706.778 445.278 706.722 445.333 706.667C445.778 706.222 444.722 706.278 444.667 706.333z"/>
<path style="fill:#7174e1; stroke:none;" d="M587 706L588 707L587 706z"/>
<path style="fill:#70a4da; stroke:none;" d="M446 707C447.248 707.685 447.548 707.749 449 708C447.752 707.315 447.452 707.251 446 707M450.667 708.333C450.222 708.778 451.278 708.722 451.333 708.667C451.778 708.222 450.722 708.278 450.667 708.333M452 709C453.506 709.683 454.315 709.826 456 710C454.494 709.317 453.685 709.174 452 709z"/>
<path style="fill:#7174e1; stroke:none;" d="M578 709L579 710L578 709z"/>
<path style="fill:#70a4da; stroke:none;" d="M456 710C457.248 710.685 457.548 710.749 459 711C457.752 710.315 457.452 710.251 456 710z"/>
<path style="fill:#7174e1; stroke:none;" d="M575 710L576 711L575 710z"/>
<path style="fill:#70a4da; stroke:none;" d="M459 711C460.506 711.683 461.315 711.826 463 712C461.494 711.317 460.685 711.174 459 711z"/>
<path style="fill:#7174e1; stroke:none;" d="M564 711C565.506 711.683 566.315 711.826 568 712C566.494 711.317 565.685 711.174 564 711z"/>
<path style="fill:#70a4da; stroke:none;" d="M463 712C464.248 712.685 464.548 712.749 466 713C464.752 712.315 464.452 712.251 463 712z"/>
<path style="fill:#7174e1; stroke:none;" d="M472 713C473.506 713.683 474.315 713.826 476 714C474.494 713.317 473.685 713.174 472 713M478 714C479.506 714.683 480.315 714.826 482 715C480.494 714.317 479.685 714.174 478 714M484 715C486.052 715.874 487.747 715.953 490 716C487.948 715.126 486.253 715.047 484 715M491 716C493.89 717.213 496.874 716.998 500 717C497.11 715.787 494.126 716.002 491 716M501 717C508.409 720.109 519.975 718 528 718C520.591 714.891 509.025 717 501 717M545 717L546 718L545 717z"/>
</svg>
